<svg width="127" height="105" viewBox="0 0 127 105" fill="none" xmlns="http://www.w3.org/2000/svg">
<path d="M115.17 55.923C115.218 56.2505 115.169 56.5848 115.031 56.8853C114.892 57.1857 114.669 57.4396 114.389 57.616C114.109 57.7924 113.784 57.8838 113.453 57.8791C113.122 57.8744 112.8 57.7739 112.525 57.5896L72.5171 38.2427C71.7535 37.8193 71.1101 37.2087 70.6474 36.4683C70.1846 35.7279 69.9177 34.882 69.8717 34.01V1.95627C69.8242 1.62877 69.8727 1.29451 70.0114 0.994016C70.15 0.693523 70.3728 0.439694 70.6528 0.263293C70.9328 0.0868917 71.258 -0.00450805 71.5889 0.000171068C71.9198 0.00485018 72.2422 0.105407 72.5171 0.289655L112.507 19.6365C113.271 20.0599 113.914 20.6705 114.377 21.411C114.84 22.1514 115.107 22.9973 115.153 23.8692L115.17 55.923Z" fill="white"/>
<path d="M80.2636 55.923C80.3111 56.2505 80.2626 56.5848 80.1239 56.8853C79.9853 57.1857 79.7625 57.4396 79.4825 57.616C79.2024 57.7924 78.8773 57.8838 78.5464 57.8791C78.2155 57.8744 77.8931 57.7739 77.6181 57.5896L37.5928 38.2427C36.8292 37.8193 36.1858 37.2087 35.723 36.4683C35.2603 35.7279 34.9934 34.882 34.9474 34.01V1.95627C34.8999 1.62877 34.9484 1.29451 35.0871 0.994016C35.2257 0.693523 35.4485 0.439694 35.7285 0.263293C36.0085 0.0868917 36.3337 -0.00450805 36.6646 0.000171068C36.9955 0.00485018 37.3179 0.105407 37.5928 0.289655L77.6181 19.6365C78.3769 20.0568 79.0172 20.6619 79.4797 21.3957C79.9421 22.1294 80.2118 22.9681 80.2636 23.834V55.923Z" fill="white"/>
<path d="M45.3251 55.923C45.3726 56.2505 45.3241 56.5848 45.1854 56.8853C45.0468 57.1857 44.8239 57.4396 44.5439 57.616C44.2639 57.7924 43.9388 57.8838 43.6079 57.8791C43.277 57.8744 42.9545 57.7739 42.6796 57.5896L2.66314 38.2427C1.89953 37.8193 1.25611 37.2087 0.79335 36.4683C0.330588 35.7279 0.0636827 34.882 0.0177176 34.01V1.95627C-0.0297866 1.62877 0.0187228 1.29451 0.157367 0.994016C0.29601 0.693523 0.518836 0.439694 0.798838 0.263293C1.07884 0.0868917 1.404 -0.00450805 1.7349 0.000171068C2.0658 0.00485018 2.38824 0.105407 2.66314 0.289655L42.662 19.6365C43.4256 20.0599 44.069 20.6705 44.5318 21.411C44.9946 22.1514 45.2615 22.9973 45.3074 23.8692L45.3251 55.923Z" fill="white"/>
<path d="M18.5931 96.3011V84.9875H6.84736V96.3011H0.903965V71.7427C0.858852 71.372 0.907919 70.9958 1.04663 70.649C1.18534 70.3022 1.40923 69.996 1.69759 69.7587C2.39244 69.3294 3.20091 69.1203 4.01675 69.159C4.68469 69.148 5.35051 69.2372 5.992 69.4236L6.87381 69.6881V79.388H18.5931V71.7163C18.5479 71.3455 18.597 70.9694 18.7357 70.6226C18.8744 70.2758 19.0983 69.9696 19.3867 69.7322C20.0815 69.3029 20.89 69.0939 21.7058 69.1326C22.3738 69.1215 23.0396 69.2107 23.6811 69.3971L24.5629 69.6617V96.2658L18.5931 96.3011Z" fill="white"/>
<path d="M38.4824 104.881C37.3945 104.886 36.3074 104.818 35.2285 104.678C34.2321 104.546 33.3503 104.387 32.5831 104.211C31.9871 104.077 31.3984 103.912 30.8195 103.717L30.3962 103.567L31.7189 99.5728L32.0187 99.6786C32.4067 99.8109 32.9005 99.9343 33.4296 100.058C33.9587 100.181 34.6201 100.296 35.3255 100.393C36.0561 100.493 36.7926 100.543 37.53 100.543C39.7346 100.543 41.3659 100.049 42.3712 99.0701C43.3764 98.0913 43.8967 96.4864 43.8967 94.2996V93.0738L43.1119 94.0174C42.5257 94.6588 41.7757 95.1283 40.9426 95.3754C39.9653 95.7206 38.9369 95.8995 37.9004 95.9045C36.762 95.914 35.6279 95.7626 34.5319 95.4547C33.5675 95.1806 32.668 94.7159 31.8865 94.0879C31.125 93.4673 30.5208 92.6757 30.1228 91.7776C29.6764 90.7182 29.46 89.576 29.4879 88.4267V78.815C29.4455 78.4629 29.4918 78.1058 29.6228 77.7761C29.7537 77.4465 29.965 77.1549 30.2375 76.9279C30.9087 76.5142 31.6898 76.3143 32.4773 76.3547C33.1119 76.3467 33.7445 76.4299 34.3555 76.6016L35.1844 76.8486V87.0599C35.1349 87.6278 35.2034 88.1999 35.3854 88.7401C35.5675 89.2803 35.8594 89.7771 36.2426 90.1991C37.1415 90.9168 38.2791 91.2666 39.4259 91.178C40.0093 91.209 40.5927 91.1184 41.1392 90.9119C41.6857 90.7055 42.1833 90.3877 42.6004 89.9787C43.4228 88.9911 43.8333 87.7248 43.7468 86.4426V78.815C43.7043 78.4629 43.7507 78.1058 43.8816 77.7761C44.0125 77.4465 44.2238 77.1549 44.4963 76.9279C45.1726 76.5107 45.9604 76.3107 46.7538 76.3547C47.3884 76.3467 48.021 76.4299 48.632 76.6016L49.4609 76.8486V93.841C49.5036 95.5846 49.2379 97.322 48.6761 98.9731C48.2197 100.26 47.4606 101.418 46.4628 102.35C45.4745 103.232 44.3028 103.882 43.0325 104.255C41.5549 104.687 40.0217 104.898 38.4824 104.881Z" fill="white"/>
<path d="M62.8003 96.7068C59.7581 96.7068 57.5095 96.6451 56.2044 96.5216L54.4408 96.3452V72.3336C54.431 71.8598 54.5057 71.388 54.6612 70.9403C54.7824 70.5942 54.9679 70.274 55.208 69.9968C55.4153 69.7624 55.671 69.5759 55.9575 69.4501C56.2557 69.3182 56.57 69.2263 56.8922 69.1767C57.6248 69.0453 58.3635 68.9512 59.1056 68.8945C60.0755 68.7975 61.5394 68.7534 63.4529 68.7534C65.7355 68.7142 68.0115 69.0113 70.2075 69.6352C72.0773 70.1796 73.8172 71.0976 75.322 72.3336C76.7299 73.5328 77.8406 75.0419 78.5671 76.7426C79.3612 78.6309 79.7517 80.6644 79.7134 82.7125C79.7494 84.7443 79.3869 86.7634 78.6464 88.6559C77.9634 90.36 76.8771 91.8729 75.4808 93.0649C73.9261 94.3377 72.1246 95.2744 70.1899 95.8162C67.7826 96.4681 65.2936 96.7681 62.8003 96.7068ZM64.2289 74.0002C63.1619 74.0002 62.333 74.0002 61.751 74.0619C61.3832 74.065 61.0167 74.1063 60.6575 74.1854L60.3577 74.2824V91.0367L60.7281 91.0985C60.8956 91.0985 61.2748 91.1602 61.848 91.2043C62.4212 91.2484 63.109 91.266 63.9026 91.266C65.1974 91.2799 66.4879 91.1167 67.7385 90.781C68.8507 90.4842 69.8875 89.9553 70.7807 89.229C71.6525 88.4944 72.3333 87.5595 72.7648 86.5042C73.2466 85.2809 73.4804 83.974 73.4526 82.6596C73.464 81.4842 73.2761 80.3155 72.897 79.2029C72.539 78.162 71.9547 77.2133 71.1863 76.4252C70.3658 75.6122 69.3749 74.9917 68.2852 74.6086C66.9794 74.169 65.6062 73.963 64.2289 74.0002Z" fill="white"/>
<path d="M83.6595 96.3013V78.815C83.617 78.4629 83.6634 78.1058 83.7943 77.7762C83.9252 77.4466 84.1365 77.155 84.409 76.9279C85.0802 76.5142 85.8614 76.3143 86.6488 76.3548C87.2835 76.3468 87.916 76.4299 88.5271 76.6017L89.356 76.8486V96.3013H83.6595ZM86.4901 73.5065C86.0683 73.5162 85.6488 73.4402 85.2572 73.2832C84.8655 73.1262 84.5098 72.8914 84.2114 72.593C83.9131 72.2947 83.6783 71.9389 83.5213 71.5473C83.3643 71.1556 83.2883 70.7362 83.2979 70.3144C83.2809 69.8896 83.3502 69.4659 83.5018 69.0687C83.6534 68.6716 83.884 68.3094 84.1798 68.004C84.4737 67.6903 84.8308 67.4424 85.2275 67.2768C85.6242 67.1111 86.0515 67.0314 86.4813 67.0429C86.9082 67.0357 87.3323 67.1145 87.7282 67.2746C88.124 67.4347 88.4836 67.6728 88.7856 67.9748C89.0875 68.2767 89.3257 68.6364 89.4858 69.0322C89.6459 69.4281 89.7247 69.8521 89.7175 70.2791C89.7303 70.7019 89.6546 71.1227 89.4951 71.5145C89.3357 71.9064 89.096 72.2605 88.7916 72.5542C88.4922 72.8626 88.1327 73.1063 87.7353 73.2701C87.3379 73.434 86.9111 73.5144 86.4813 73.5065H86.4901Z" fill="white"/>
<path d="M93.419 104.475V87.2625C93.3932 85.7766 93.5652 84.2939 93.9305 82.8535C94.214 81.7471 94.7014 80.7034 95.3678 79.7759C96.3564 78.4792 97.6623 77.4588 99.1596 76.8131C100.795 76.1149 102.558 75.7665 104.336 75.7902C105.808 75.778 107.27 76.0381 108.648 76.5573C109.92 77.0379 111.085 77.7629 112.078 78.6913C113.056 79.6349 113.826 80.7735 114.336 82.0334C114.894 83.4047 115.173 84.8737 115.156 86.3542C115.176 87.833 114.916 89.3022 114.388 90.6839C113.916 91.9037 113.213 93.0206 112.316 93.9731C111.452 94.8785 110.41 95.596 109.256 96.0806C108.069 96.5765 106.795 96.8284 105.509 96.8213C104.278 96.8657 103.052 96.6368 101.92 96.1511C101.147 95.8134 100.435 95.3517 99.8121 94.7843L99.0626 94.0348V104.502L93.419 104.475ZM104.168 80.9487C103.49 80.9292 102.815 81.0465 102.184 81.2934C101.552 81.5403 100.976 81.912 100.491 82.3861C99.9967 82.9048 99.6128 83.5185 99.3627 84.19C99.1126 84.8615 99.0015 85.5768 99.0362 86.2925C99.0325 87.0209 99.1609 87.7439 99.4153 88.4265C99.6527 89.0803 100.018 89.6799 100.491 90.1901C100.953 90.6821 101.507 91.0777 102.122 91.3541C102.772 91.6414 103.476 91.7858 104.186 91.7774C104.877 91.7952 105.563 91.666 106.2 91.3985C106.837 91.1309 107.41 90.731 107.881 90.2254C108.857 89.1604 109.377 87.7543 109.327 86.3101C109.356 85.6017 109.241 84.8948 108.992 84.2313C108.742 83.5678 108.361 82.9613 107.872 82.4478C107.393 81.9539 106.816 81.5648 106.178 81.3053C105.541 81.0457 104.856 80.9213 104.168 80.9399V80.9487Z" fill="white"/>
<path d="M117.25 73.974C117.246 73.3219 117.378 72.6763 117.638 72.0781C118.136 70.9122 119.064 69.9835 120.23 69.4856C120.83 69.2314 121.475 69.1004 122.126 69.1004C122.777 69.1004 123.422 69.2314 124.022 69.4856C125.188 69.9835 126.117 70.9122 126.614 72.0781C126.869 72.6778 127 73.3226 127 73.974C127 74.6254 126.869 75.2701 126.614 75.8699C126.117 77.0357 125.188 77.9644 124.022 78.4624C123.422 78.7165 122.777 78.8475 122.126 78.8475C121.475 78.8475 120.83 78.7165 120.23 78.4624C119.059 77.9642 118.127 77.0319 117.629 75.861C117.374 75.2649 117.245 74.6224 117.25 73.974ZM118.131 73.974C118.127 75.0539 118.541 76.0936 119.287 76.8751C119.642 77.249 120.067 77.5487 120.539 77.7569C121.027 77.9655 121.551 78.0731 122.082 78.0731C122.612 78.0731 123.137 77.9655 123.625 77.7569C124.097 77.5487 124.522 77.249 124.877 76.8751C125.622 76.093 126.038 75.0542 126.038 73.974C126.038 72.8938 125.622 71.855 124.877 71.0728C124.522 70.699 124.097 70.3992 123.625 70.191C123.137 69.9824 122.612 69.8748 122.082 69.8748C121.551 69.8748 121.027 69.9824 120.539 70.191C120.067 70.3992 119.642 70.699 119.287 71.0728C118.56 71.8621 118.165 72.9011 118.184 73.974H118.131ZM124.216 72.7571C124.219 72.9582 124.186 73.1582 124.119 73.3479C124.061 73.5101 123.978 73.6619 123.872 73.7976C123.771 73.9251 123.652 74.0378 123.519 74.1327C123.392 74.2243 123.252 74.2985 123.105 74.3531C123.379 74.7357 123.633 75.1331 123.863 75.5436C124.11 75.9786 124.325 76.3666 124.507 76.7076H123.625L123.361 76.2314L122.999 75.6053C122.876 75.3878 122.749 75.182 122.62 74.988C122.491 74.7941 122.388 74.6441 122.311 74.5383H121.985H121.518H121.077H120.662V76.7428H119.948V71.5137C119.946 71.402 119.986 71.2938 120.062 71.2116C120.138 71.1293 120.242 71.0796 120.354 71.0728C120.499 71.0469 120.647 71.0322 120.795 71.0287H121.676C122.02 71.0273 122.362 71.0598 122.699 71.1257C122.988 71.1769 123.266 71.2783 123.519 71.4255C123.74 71.5586 123.923 71.7471 124.048 71.9723C124.178 72.2165 124.245 72.4893 124.242 72.7659L124.216 72.7571ZM123.422 72.7571C123.427 72.6045 123.394 72.4532 123.326 72.3164C123.258 72.1796 123.158 72.0615 123.034 71.9723C122.599 71.7317 122.101 71.6272 121.606 71.6724H120.997H120.662V73.8329L121.059 73.877H121.712C122.173 73.9161 122.635 73.8114 123.034 73.5772C123.168 73.4881 123.279 73.3676 123.355 73.2262C123.432 73.0848 123.473 72.9268 123.475 72.7659L123.422 72.7571Z" fill="white"/>
</svg>
